<?xml version="1.0" encoding="utf-8"?>
<!-- Generator: Adobe Illustrator 23.0.4, SVG Export Plug-In . SVG Version: 6.00 Build 0)  -->
<svg version="1.1" id="Layer_1" xmlns="http://www.w3.org/2000/svg" xmlns:xlink="http://www.w3.org/1999/xlink" x="0px" y="0px"
	 viewBox="0 0 300 300" style="enable-background:new 0 0 300 300;" xml:space="preserve">
<style type="text/css">
	.st0{fill:#FF0265;}
	.st1{fill:none;}
</style>
<path class="st0" d="M150,20.3C78.3,20.3,20.3,78.3,20.3,150S78.3,279.7,150,279.7S279.7,221.7,279.7,150S221.7,20.3,150,20.3z
	 M222.9,106.2l-38.5,98.6c-1.2,3-4.9,5.5-8.1,5.5h-26c-3.2,0-5.1-2.7-5-5.9c0,0,0.1-60.1,0.1-60.1c-0.1,0-28.2,60.8-28.2,60.8
	c-1.5,2.9-3.7,5.2-6.9,5.2H88.7c-3.2,0-5.9-2.7-5.9-5.9L82,106.7c0-3.2,2.6-5.9,5.9-5.9h13.7c3.2,0,5.9,2.7,5.9,5.9
	c0,0-0.5,70.3-0.4,70.3c0.1,0,32-71.1,32-71.1c1.6-2.8,3.8-5.2,7.1-5.2h15.7c3.2,0,6,2.7,6.1,5.9c0,0,0.1,70.5,0.2,70.5
	c0.1,0,27.9-71,27.9-71c1.3-3,4.2-5.4,7.5-5.4h15.7C222.5,100.8,224.1,103.2,222.9,106.2z M234.6,104.5h-2.1v5.7h-1.5v-5.7h-2.1
	v-1.3h5.8V104.5z M241.5,110.2v-5h0l-1.7,5h-1.2l-1.7-4.9h0v4.9h-1.4v-7h2.2l1.6,4.8h0l1.6-4.8h2.2v7H241.5z"/>
<rect x="-0.3" y="0.2" class="st1" width="300" height="300"/>
</svg>
