<?xml version="1.0" standalone="no"?>
<!DOCTYPE svg PUBLIC "-//W3C//DTD SVG 20010904//EN"
 "http://www.w3.org/TR/2001/REC-SVG-20010904/DTD/svg10.dtd">
<svg version="1.0" xmlns="http://www.w3.org/2000/svg"
 width="1024.000000pt" height="1024.000000pt" viewBox="0 0 1024.000000 1024.000000"
 preserveAspectRatio="xMidYMid meet">
<metadata>
Created by potrace 1.11, written by Peter Selinger 2001-2013
</metadata>
<g transform="translate(0.000000,1024.000000) scale(0.100000,-0.100000)"
fill="#000000" stroke="none">
<path d="M939 10104 c-416 -75 -756 -430 -809 -844 -8 -60 -10 -1285 -8 -4195
l3 -4110 22 -77 c54 -189 137 -333 268 -463 133 -134 281 -218 469 -268 l81
-22 4155 0 4155 0 81 22 c188 50 336 134 469 268 134 133 218 281 268 469 l22
81 0 4155 0 4155 -22 81 c-50 188 -134 336 -268 469 -130 131 -274 214 -463
268 l-77 22 -4135 2 c-3480 1 -4147 -1 -4211 -13z m4403 -2354 c586 -36 1003
-211 1382 -579 227 -222 378 -457 470 -731 103 -312 99 -390 -22 -427 -50 -16
-100 -18 -412 -18 -476 0 -482 2 -550 178 -103 268 -316 475 -612 596 -185 76
-348 100 -542 82 -318 -31 -574 -147 -781 -356 -152 -153 -238 -304 -330 -582
-79 -236 -103 -389 -112 -703 -10 -370 54 -699 192 -985 113 -233 249 -397
433 -519 115 -77 155 -95 327 -147 343 -105 747 -62 1001 107 84 56 168 137
246 238 110 142 131 186 247 525 31 89 42 109 74 135 l39 31 406 3 c449 3 449
3 496 -61 29 -40 27 -132 -7 -282 -71 -310 -211 -630 -369 -840 -349 -465
-904 -757 -1528 -805 -167 -12 -383 -13 -447 -1 -26 5 -93 14 -148 21 -235 27
-484 101 -720 214 -394 190 -655 414 -891 767 -72 109 -184 317 -224 419 -46
116 -138 459 -154 575 -10 66 -24 153 -33 194 -19 94 -22 521 -5 666 51 417
140 749 269 1009 108 216 274 449 427 601 243 241 491 402 815 530 107 42 331
102 436 116 275 38 392 43 627 29z m2451 -4341 c50 -23 52 -39 52 -368 0 -346
0 -347 -73 -369 -52 -16 -586 -17 -630 -1 -65 23 -67 31 -70 372 l-3 308 34
34 35 35 316 0 c210 0 323 -4 339 -11z"/>
</g>
</svg>
